<?xml version="1.0" encoding="UTF-8" standalone="no"?>
<svg width="412.044mm" height="25.4mm"
 xmlns="http://www.w3.org/2000/svg" xmlns:xlink="http://www.w3.org/1999/xlink"  version="1.2" baseProfile="tiny">
<title>Qt SVG Document</title>
<desc>Generated with Qt</desc>
<defs>
</defs>
<g fill="none" stroke="black" stroke-width="1" fill-rule="evenodd" stroke-linecap="square" stroke-linejoin="bevel" >

<g fill="none" stroke="#000000" stroke-opacity="1" stroke-width="1" stroke-linecap="square" stroke-linejoin="bevel" transform="matrix(1,0,0,1,0,0)"
font-family="Ubuntu" font-size="11" font-weight="400" font-style="normal" 
>
</g>

<g fill="none" stroke="#000000" stroke-opacity="1" stroke-width="1" stroke-linecap="square" stroke-linejoin="bevel" transform="matrix(1,0,0,1,0,0)"
font-family="Ubuntu" font-size="11" font-weight="400" font-style="normal" 
>
</g>

<g fill="none" stroke="#000000" stroke-opacity="1" stroke-width="1" stroke-linecap="square" stroke-linejoin="bevel" transform="matrix(1.99941,0,0,1.99941,0.00319906,71.9788)"
font-family="Ubuntu" font-size="11" font-weight="400" font-style="normal" 
>
</g>

<g fill="#ffffff" fill-opacity="1" stroke="none" transform="matrix(1.99941,0,0,1.99941,0.00319906,71.9788)"
font-family="Ubuntu" font-size="11" font-weight="400" font-style="normal" 
>
<rect x="-0.0016" y="-36" width="584.172" height="36"/>
</g>

<g fill="none" stroke="#000000" stroke-opacity="1" stroke-width="1" stroke-linecap="square" stroke-linejoin="bevel" transform="matrix(1.99941,0,0,1.99941,0.00319906,71.9788)"
font-family="Ubuntu" font-size="11" font-weight="400" font-style="normal" 
>
</g>

<g fill="none" stroke="#000000" stroke-opacity="1" stroke-width="1" stroke-linecap="square" stroke-linejoin="bevel" transform="matrix(1.99941,0,0,1.99941,0.00319906,71.9788)"
font-family="Ubuntu" font-size="11" font-weight="400" font-style="normal" 
>
</g>

<g fill="none" stroke="#000000" stroke-opacity="1" stroke-width="1" stroke-linecap="square" stroke-linejoin="bevel" transform="matrix(1.99941,0,0,1.99941,0.00319906,71.9788)"
font-family="Ubuntu" font-size="11" font-weight="400" font-style="normal" 
>
</g>

<g fill="none" stroke="#000000" stroke-opacity="1" stroke-width="1" stroke-linecap="square" stroke-linejoin="bevel" transform="matrix(1.99941,0,0,1.99941,0.00319906,71.9788)"
font-family="Ubuntu" font-size="11" font-weight="400" font-style="normal" 
>
</g>

<g fill="none" stroke="#000000" stroke-opacity="1" stroke-width="1" stroke-linecap="square" stroke-linejoin="round" transform="matrix(1.99941,0,0,1.99941,0.00319906,71.9788)"
font-family="Ubuntu" font-size="11" font-weight="400" font-style="normal" 
>
<rect x="256.39" y="-35.5" width="64.0002" height="35"/>
</g>

<g fill="none" stroke="#000000" stroke-opacity="1" stroke-width="1" stroke-linecap="square" stroke-linejoin="bevel" transform="matrix(1.99941,0,0,1.99941,0.00319906,71.9788)"
font-family="Ubuntu" font-size="11" font-weight="400" font-style="normal" 
>
</g>

<g fill="none" stroke="#000000" stroke-opacity="1" stroke-width="1" stroke-linecap="square" stroke-linejoin="bevel" transform="matrix(1.99941,0,0,1.99941,539.078,21.9935)"
font-family="Ubuntu" font-size="11" font-weight="400" font-style="normal" 
>
</g>

<g fill="none" stroke="#000000" stroke-opacity="1" stroke-width="1" stroke-linecap="square" stroke-linejoin="bevel" transform="matrix(1.99941,0,0,1.99941,539.078,21.9935)"
font-family="sans" font-size="11" font-weight="100" font-style="normal" 
>
</g>

<g fill="#000000" fill-opacity="1" stroke="#000000" stroke-opacity="1" stroke-width="1" stroke-linecap="square" stroke-linejoin="round" transform="matrix(1.99941,0,0,1.99941,539.078,21.9935)"
font-family="sans" font-size="11" font-weight="100" font-style="normal" 
>
<path vector-effect="none" fill-rule="nonzero" d="M2.96875,2.98438 L3.53125,2.98438 L0.734375,12.0156 L0.171875,12.0156 L2.96875,2.98438 M4.9375,4.98438 L5.4375,4.98438 L5.4375,11 L4.9375,11 L4.9375,4.98438 M4.9375,2.64063 L5.4375,2.64063 L5.4375,3.3125 L4.9375,3.3125 L4.9375,2.64063 M12.3281,6.29688 C12.5156,5.80729 12.8073,5.44271 13.2031,5.20313 C13.5885,4.96354 14.0417,4.84375 14.5625,4.84375 C15.0833,4.84375 15.5,5.02604 15.8125,5.39063 C16.1354,5.75521 16.2969,6.41667 16.2969,7.375 L16.2969,11 L15.8125,11 L15.8125,7.40625 C15.8125,6.57292 15.6979,6.01042 15.4688,5.71875 C15.2396,5.42708 14.9323,5.28125 14.5469,5.28125 C13.9948,5.28125 13.5104,5.44792 13.0938,5.78125 C12.625,6.15625 12.3906,6.76042 12.3906,7.59375 L12.3906,11 L11.9063,11 L11.9063,7.40625 C11.9063,6.60417 11.7943,6.04948 11.5703,5.74219 C11.3464,5.4349 11.0365,5.28125 10.6406,5.28125 C10.0885,5.28125 9.60417,5.45313 9.1875,5.79688 C8.71875,6.16146 8.48438,6.76042 8.48438,7.59375 L8.48438,11 L8,11 L8,4.98438 L8.48438,4.98438 L8.48438,6.10938 C8.66146,5.71354 8.9375,5.40104 9.3125,5.17188 C9.67708,4.95313 10.1302,4.84375 10.6719,4.84375 C11.026,4.84375 11.3646,4.95833 11.6875,5.1875 C11.9375,5.375 12.151,5.74479 12.3281,6.29688 M21.1094,7.60938 C20.3073,7.60938 19.7318,7.75 19.3828,8.03125 C19.0339,8.3125 18.8594,8.72396 18.8594,9.26563 C18.8594,9.79688 19.0052,10.1745 19.2969,10.3984 C19.5885,10.6224 19.9323,10.7344 20.3281,10.7344 C21.0781,10.7344 21.6198,10.4167 21.9531,9.78125 C22.2865,9.13542 22.4531,8.53125 22.4531,7.96875 L22.4531,7.60938 L21.1094,7.60938 M22.9531,7.5625 L22.9531,11 L22.4531,11 L22.4531,9.35938 C22.1823,10.1615 21.8177,10.6719 21.3594,10.8906 C21.0052,11.0677 20.6458,11.1563 20.2813,11.1563 C19.6875,11.1563 19.2188,10.9948 18.875,10.6719 C18.5313,10.349 18.3594,9.8776 18.3594,9.25781 C18.3594,8.63802 18.5833,8.14063 19.0313,7.76563 C19.4792,7.39063 20.2083,7.20313 21.2188,7.20313 L22.4531,7.20313 L22.4531,7.10938 C22.4531,6.57813 22.2969,6.14063 21.9844,5.79688 C21.6927,5.45313 21.1979,5.28125 20.5,5.28125 C20.1563,5.28125 19.8073,5.34375 19.4531,5.46875 C19.224,5.55208 18.9219,5.71875 18.5469,5.96875 L18.5469,5.4375 C18.8698,5.23958 19.1719,5.09896 19.4531,5.01563 C19.849,4.90104 20.2292,4.84375 20.5938,4.84375 C21.3125,4.84375 21.901,5.05729 22.3594,5.48438 C22.7552,5.84896 22.9531,6.54167 22.9531,7.5625 M29.4375,7.92188 C29.4375,7.08854 29.2682,6.44271 28.9297,5.98438 C28.5911,5.52604 28.1146,5.29688 27.5,5.29688 C26.8958,5.29688 26.4245,5.52604 26.0859,5.98438 C25.7474,6.44271 25.5781,7.08854 25.5781,7.92188 C25.5781,8.75521 25.7474,9.40104 26.0859,9.85938 C26.4245,10.3177 26.8958,10.5469 27.5,10.5469 C28.1146,10.5469 28.5911,10.3177 28.9297,9.85938 C29.2682,9.40104 29.4375,8.75521 29.4375,7.92188 M29.9219,10.25 C29.9219,11.5 29.6849,12.3177 29.2109,12.7031 C28.737,13.0885 28.1354,13.2813 27.4063,13.2813 C27.0521,13.2813 26.724,13.2604 26.4219,13.2188 C26.1094,13.1563 25.8073,13.0729 25.5156,12.9688 L25.5156,12.4063 C25.8073,12.5625 26.0938,12.6797 26.375,12.7578 C26.6563,12.8359 26.9479,12.875 27.25,12.875 C27.8438,12.875 28.3568,12.7474 28.7891,12.4922 C29.2214,12.237 29.4375,11.5521 29.4375,10.4375 L29.4375,9.48438 C29.2813,9.90104 29.0781,10.2292 28.8281,10.4688 C28.4323,10.8229 27.9896,11 27.5,11 C26.7396,11 26.1458,10.7318 25.7188,10.1953 C25.2917,9.65885 25.0781,8.90104 25.0781,7.92188 C25.0781,6.94271 25.2917,6.1849 25.7188,5.64844 C26.1458,5.11198 26.7396,4.84375 27.5,4.84375 C27.9896,4.84375 28.4063,4.99479 28.75,5.29688 C29.0208,5.53646 29.25,5.85938 29.4375,6.26563 L29.4375,4.98438 L29.9219,4.98438 L29.9219,10.25 M36.7188,7.75 L36.7188,8.0625 L32.1563,8.0625 C32.1563,9.02083 32.3438,9.69792 32.7188,10.0938 C33.1354,10.5208 33.75,10.7344 34.5625,10.7344 C34.7813,10.7344 35.0677,10.6875 35.4219,10.5938 C35.776,10.5 36.1302,10.3594 36.4844,10.1719 L36.4844,10.6875 C36.1302,10.8438 35.7682,10.9609 35.3984,11.0391 C35.0286,11.1172 34.7344,11.1563 34.5156,11.1563 C33.5885,11.1563 32.8906,10.9063 32.4219,10.4063 C31.9115,9.875 31.6563,9.09375 31.6563,8.0625 C31.6563,6.98958 31.8854,6.1875 32.3438,5.65625 C32.8229,5.11458 33.4896,4.84375 34.3438,4.84375 C35.125,4.84375 35.7188,5.10417 36.125,5.625 C36.5208,6.16667 36.7188,6.875 36.7188,7.75 M36.2188,7.64063 C36.2188,6.79688 36.026,6.18229 35.6406,5.79688 C35.3281,5.45313 34.8958,5.28125 34.3438,5.28125 C33.75,5.28125 33.25,5.45833 32.8438,5.8125 C32.4688,6.14583 32.2448,6.75521 32.1719,7.64063 L36.2188,7.64063"/>
</g>

<g fill="none" stroke="#000000" stroke-opacity="1" stroke-width="1" stroke-linecap="square" stroke-linejoin="bevel" transform="matrix(1.99941,0,0,1.99941,539.078,21.9935)"
font-family="sans" font-size="11" font-weight="100" font-style="normal" 
>
</g>

<g fill="none" stroke="#000000" stroke-opacity="1" stroke-width="1" stroke-linecap="square" stroke-linejoin="bevel" transform="matrix(1.99941,0,0,1.99941,539.078,21.9935)"
font-family="Ubuntu" font-size="11" font-weight="400" font-style="normal" 
>
</g>

<g fill="none" stroke="#000000" stroke-opacity="1" stroke-width="1" stroke-linecap="square" stroke-linejoin="bevel" transform="matrix(1.99941,0,0,1.99941,0.00319906,71.9788)"
font-family="Ubuntu" font-size="11" font-weight="400" font-style="normal" 
>
</g>

<g fill="none" stroke="#000000" stroke-opacity="1" stroke-width="1" stroke-linecap="square" stroke-linejoin="bevel" transform="matrix(1.99941,0,0,1.99941,0.00319906,71.9788)"
font-family="Ubuntu" font-size="11" font-weight="400" font-style="normal" 
>
</g>

<g fill="none" stroke="#000000" stroke-opacity="1" stroke-width="1" stroke-linecap="square" stroke-linejoin="bevel" transform="matrix(1.99941,0,0,1.99941,0.00319906,71.9788)"
font-family="Ubuntu" font-size="11" font-weight="400" font-style="normal" 
>
</g>

<g fill="none" stroke="#000000" stroke-opacity="1" stroke-width="1" stroke-linecap="square" stroke-linejoin="round" transform="matrix(1.99941,0,0,1.99941,0.00319906,71.9788)"
font-family="Ubuntu" font-size="11" font-weight="400" font-style="normal" 
>
<ellipse cx="420.03" cy="-18" rx="84.6436" ry="17.5"/>
</g>

<g fill="none" stroke="#000000" stroke-opacity="1" stroke-width="1" stroke-linecap="square" stroke-linejoin="bevel" transform="matrix(1.99941,0,0,1.99941,0.00319906,71.9788)"
font-family="Ubuntu" font-size="11" font-weight="400" font-style="normal" 
>
</g>

<g fill="none" stroke="#000000" stroke-opacity="1" stroke-width="1" stroke-linecap="square" stroke-linejoin="bevel" transform="matrix(1.99941,0,0,1.99941,752.155,21.9935)"
font-family="Ubuntu" font-size="11" font-weight="400" font-style="normal" 
>
</g>

<g fill="none" stroke="#000000" stroke-opacity="1" stroke-width="1" stroke-linecap="square" stroke-linejoin="bevel" transform="matrix(1.99941,0,0,1.99941,752.155,21.9935)"
font-family="sans" font-size="11" font-weight="100" font-style="normal" 
>
</g>

<g fill="#000000" fill-opacity="1" stroke="#000000" stroke-opacity="1" stroke-width="1" stroke-linecap="square" stroke-linejoin="round" transform="matrix(1.99941,0,0,1.99941,752.155,21.9935)"
font-family="sans" font-size="11" font-weight="100" font-style="normal" 
>
<path vector-effect="none" fill-rule="nonzero" d="M2.96875,2.98438 L3.53125,2.98438 L0.734375,12.0156 L0.171875,12.0156 L2.96875,2.98438 M5.4375,9.64063 L5.4375,13.2813 L4.95313,13.2813 L4.95313,4.98438 L5.4375,4.98438 L5.4375,6.35938 C5.66667,5.83854 5.91146,5.47917 6.17188,5.28125 C6.57813,4.98958 6.96354,4.84375 7.32813,4.84375 C8.03646,4.84375 8.6276,5.13281 9.10156,5.71094 C9.57552,6.28906 9.8125,7.05208 9.8125,8 C9.8125,8.94792 9.57552,9.71094 9.10156,10.2891 C8.6276,10.8672 8.03646,11.1563 7.32813,11.1563 C6.96354,11.1563 6.57813,11.0052 6.17188,10.7031 C5.91146,10.5156 5.66667,10.1615 5.4375,9.64063 M8.67188,10.0938 C9.08854,9.67708 9.29688,8.97917 9.29688,8 C9.29688,7.02083 9.08854,6.32292 8.67188,5.90625 C8.25521,5.48958 7.81771,5.28125 7.35938,5.28125 C6.91146,5.28125 6.47917,5.48958 6.0625,5.90625 C5.65625,6.32292 5.45313,7.02083 5.45313,8 C5.45313,8.97917 5.65625,9.67708 6.0625,10.0938 C6.47917,10.5104 6.91146,10.7188 7.35938,10.7188 C7.81771,10.7188 8.25521,10.5104 8.67188,10.0938 M11.8594,8.60938 L11.8594,4.98438 L12.3438,4.98438 L12.3438,8.57813 C12.3438,9.35938 12.4688,9.90885 12.7188,10.2266 C12.9688,10.5443 13.3385,10.7031 13.8281,10.7031 C14.401,10.7031 14.8906,10.5313 15.2969,10.1875 C15.7031,9.84375 15.9063,9.24479 15.9063,8.39063 L15.9063,4.98438 L16.3906,4.98438 L16.3906,11 L15.9063,11 L15.9063,9.875 C15.7292,10.2396 15.4948,10.5156 15.2031,10.7031 C14.7865,10.9948 14.3229,11.1406 13.8125,11.1406 C13.2188,11.1406 12.7448,10.9375 12.3906,10.5313 C12.0365,10.1354 11.8594,9.49479 11.8594,8.60938 M22.6094,10.0938 C23.026,9.67708 23.2344,8.97917 23.2344,8 C23.2344,7.02083 23.026,6.32292 22.6094,5.90625 C22.1927,5.48958 21.7552,5.28125 21.2969,5.28125 C20.849,5.28125 20.4167,5.48958 20,5.90625 C19.5938,6.32292 19.3906,7.02083 19.3906,8 C19.3906,8.97917 19.5938,9.67708 20,10.0938 C20.4167,10.5104 20.849,10.7188 21.2969,10.7188 C21.7552,10.7188 22.1927,10.5104 22.6094,10.0938 M19.375,6.35938 C19.6042,5.83854 19.849,5.47917 20.1094,5.28125 C20.5156,4.98958 20.901,4.84375 21.2656,4.84375 C21.974,4.84375 22.5651,5.13281 23.0391,5.71094 C23.513,6.28906 23.75,7.05208 23.75,8 C23.75,8.94792 23.513,9.71094 23.0391,10.2891 C22.5651,10.8672 21.974,11.1563 21.2656,11.1563 C20.901,11.1563 20.5156,11.0052 20.1094,10.7031 C19.849,10.5156 19.6042,10.1615 19.375,9.64063 L19.375,11 L18.8906,11 L18.8906,2.64063 L19.375,2.64063 L19.375,6.35938 M30.2188,13.1719 L30.2188,13.5938 L24.5,13.5938 L24.5,13.1719 L30.2188,13.1719 M35.0781,10.0938 C35.4948,9.67708 35.7031,8.97917 35.7031,8 C35.7031,7.02083 35.4948,6.32292 35.0781,5.90625 C34.6615,5.48958 34.224,5.28125 33.7656,5.28125 C33.3177,5.28125 32.8854,5.48958 32.4688,5.90625 C32.0625,6.32292 31.8594,7.02083 31.8594,8 C31.8594,8.97917 32.0625,9.67708 32.4688,10.0938 C32.8854,10.5104 33.3177,10.7188 33.7656,10.7188 C34.224,10.7188 34.6615,10.5104 35.0781,10.0938 M31.8438,6.35938 C32.0729,5.83854 32.3177,5.47917 32.5781,5.28125 C32.9844,4.98958 33.3698,4.84375 33.7344,4.84375 C34.4427,4.84375 35.0339,5.13281 35.5078,5.71094 C35.9818,6.28906 36.2188,7.05208 36.2188,8 C36.2188,8.94792 35.9818,9.71094 35.5078,10.2891 C35.0339,10.8672 34.4427,11.1563 33.7344,11.1563 C33.3698,11.1563 32.9844,11.0052 32.5781,10.7031 C32.3177,10.5156 32.0729,10.1615 31.8438,9.64063 L31.8438,11 L31.3594,11 L31.3594,2.64063 L31.8438,2.64063 L31.8438,6.35938 M41.5938,5.40625 C41.5104,5.36458 41.401,5.33333 41.2656,5.3125 C41.1406,5.29167 40.9896,5.28125 40.8125,5.28125 C40.1979,5.28125 39.6927,5.50521 39.2969,5.95313 C38.974,6.31771 38.8125,6.94271 38.8125,7.82813 L38.8125,11 L38.3281,11 L38.3281,4.98438 L38.8125,4.98438 L38.8125,6.10938 C38.9792,5.78646 39.2083,5.51563 39.5,5.29688 C39.8958,4.99479 40.3646,4.84375 40.9063,4.84375 C41.0521,4.84375 41.1771,4.84896 41.2813,4.85938 C41.3854,4.85938 41.4896,4.86979 41.5938,4.89063 L41.5938,5.40625 M42.8281,4.98438 L43.3281,4.98438 L43.3281,11 L42.8281,11 L42.8281,4.98438 M42.8281,2.64063 L43.3281,2.64063 L43.3281,3.3125 L42.8281,3.3125 L42.8281,2.64063 M49.8906,7.92188 C49.8906,7.08854 49.7214,6.44271 49.3828,5.98438 C49.0443,5.52604 48.5677,5.29688 47.9531,5.29688 C47.349,5.29688 46.8776,5.52604 46.5391,5.98438 C46.2005,6.44271 46.0313,7.08854 46.0313,7.92188 C46.0313,8.75521 46.2005,9.40104 46.5391,9.85938 C46.8776,10.3177 47.349,10.5469 47.9531,10.5469 C48.5677,10.5469 49.0443,10.3177 49.3828,9.85938 C49.7214,9.40104 49.8906,8.75521 49.8906,7.92188 M50.375,10.25 C50.375,11.5 50.138,12.3177 49.6641,12.7031 C49.1901,13.0885 48.5885,13.2813 47.8594,13.2813 C47.5052,13.2813 47.1771,13.2604 46.875,13.2188 C46.5625,13.1563 46.2604,13.0729 45.9688,12.9688 L45.9688,12.4063 C46.2604,12.5625 46.5469,12.6797 46.8281,12.7578 C47.1094,12.8359 47.401,12.875 47.7031,12.875 C48.2969,12.875 48.8099,12.7474 49.2422,12.4922 C49.6745,12.237 49.8906,11.5521 49.8906,10.4375 L49.8906,9.48438 C49.7344,9.90104 49.5313,10.2292 49.2813,10.4688 C48.8854,10.8229 48.4427,11 47.9531,11 C47.1927,11 46.599,10.7318 46.1719,10.1953 C45.7448,9.65885 45.5313,8.90104 45.5313,7.92188 C45.5313,6.94271 45.7448,6.1849 46.1719,5.64844 C46.599,5.11198 47.1927,4.84375 47.9531,4.84375 C48.4427,4.84375 48.8594,4.99479 49.2031,5.29688 C49.474,5.53646 49.7031,5.85938 49.8906,6.26563 L49.8906,4.98438 L50.375,4.98438 L50.375,10.25 M57.0313,7.375 L57.0313,11 L56.5313,11 L56.5313,7.40625 C56.5313,6.625 56.401,6.07552 56.1406,5.75781 C55.8802,5.4401 55.4844,5.28125 54.9531,5.28125 C54.3385,5.28125 53.8542,5.45833 53.5,5.8125 C53.1458,6.16667 52.9688,6.76042 52.9688,7.59375 L52.9688,11 L52.4844,11 L52.4844,2.64063 L52.9688,2.64063 L52.9688,6.09375 C53.0833,5.79167 53.2917,5.52083 53.5938,5.28125 C53.9375,4.98958 54.4271,4.84375 55.0625,4.84375 C55.6667,4.84375 56.1458,5.05729 56.5,5.48438 C56.8542,5.91146 57.0313,6.54167 57.0313,7.375 M59.9688,3.28125 L59.9688,4.98438 L62,4.98438 L62,5.40625 L59.9688,5.40625 L59.9688,9.01563 C59.9688,9.47396 60.026,9.79688 60.1406,9.98438 C60.3906,10.3802 60.75,10.5781 61.2188,10.5781 L62,10.5781 L62,11 L61.2344,11 C60.7448,11 60.3281,10.8568 59.9844,10.5703 C59.6406,10.2839 59.4688,9.76563 59.4688,9.01563 L59.4688,5.40625 L58.75,5.40625 L58.75,4.98438 L59.4688,4.98438 L59.4688,3.28125 L59.9688,3.28125 M68.3125,7.375 L68.3125,11 L67.8125,11 L67.8125,7.40625 C67.8125,6.625 67.6875,6.07552 67.4375,5.75781 C67.1875,5.4401 66.8177,5.28125 66.3281,5.28125 C65.7552,5.28125 65.2708,5.45313 64.875,5.79688 C64.4583,6.14063 64.25,6.73958 64.25,7.59375 L64.25,11 L63.7656,11 L63.7656,4.98438 L64.25,4.98438 L64.25,6.10938 C64.4271,5.74479 64.6615,5.46875 64.9531,5.28125 C65.3698,4.98958 65.8333,4.84375 66.3438,4.84375 C66.9479,4.84375 67.4271,5.04688 67.7813,5.45313 C68.1354,5.84896 68.3125,6.48958 68.3125,7.375 M75.4219,7.75 L75.4219,8.0625 L70.8594,8.0625 C70.8594,9.02083 71.0469,9.69792 71.4219,10.0938 C71.8385,10.5208 72.4531,10.7344 73.2656,10.7344 C73.4844,10.7344 73.7708,10.6875 74.125,10.5938 C74.4792,10.5 74.8333,10.3594 75.1875,10.1719 L75.1875,10.6875 C74.8333,10.8438 74.4714,10.9609 74.1016,11.0391 C73.7318,11.1172 73.4375,11.1563 73.2188,11.1563 C72.2917,11.1563 71.5938,10.9063 71.125,10.4063 C70.6146,9.875 70.3594,9.09375 70.3594,8.0625 C70.3594,6.98958 70.5885,6.1875 71.0469,5.65625 C71.526,5.11458 72.1927,4.84375 73.0469,4.84375 C73.8281,4.84375 74.4219,5.10417 74.8281,5.625 C75.224,6.16667 75.4219,6.875 75.4219,7.75 M74.9219,7.64063 C74.9219,6.79688 74.7292,6.18229 74.3438,5.79688 C74.0313,5.45313 73.599,5.28125 73.0469,5.28125 C72.4531,5.28125 71.9531,5.45833 71.5469,5.8125 C71.1719,6.14583 70.9479,6.75521 70.875,7.64063 L74.9219,7.64063 M80.9063,5.15625 L80.9063,5.70313 C80.5521,5.50521 80.3333,5.39583 80.25,5.375 C80,5.32292 79.6875,5.29167 79.3125,5.28125 C78.75,5.28125 78.3073,5.39063 77.9844,5.60938 C77.7344,5.79688 77.6094,6.11458 77.6094,6.5625 C77.6094,6.875 77.7292,7.11458 77.9688,7.28125 C78.2083,7.46875 78.5573,7.61458 79.0156,7.71875 L79.3594,7.78125 C79.9323,7.90625 80.3646,8.08333 80.6563,8.3125 C81,8.58333 81.1771,8.92708 81.1875,9.34375 C81.1875,9.90625 81.0208,10.349 80.6875,10.6719 C80.3333,10.9948 79.7552,11.1563 78.9531,11.1563 C78.5156,11.1563 78.1823,11.125 77.9531,11.0625 C77.6719,10.9896 77.3802,10.8958 77.0781,10.7813 L77.0781,10.1563 C77.5156,10.4063 77.7969,10.5521 77.9219,10.5938 C78.276,10.6875 78.6302,10.7344 78.9844,10.7344 C79.5573,10.7344 79.9844,10.6146 80.2656,10.375 C80.5469,10.125 80.6875,9.80729 80.6875,9.42188 C80.6875,9.08854 80.5938,8.84896 80.4063,8.70313 C80.1354,8.48438 79.7083,8.30729 79.125,8.17188 L78.7813,8.09375 C78.2708,7.96875 77.8854,7.80208 77.625,7.59375 C77.2917,7.32292 77.125,6.99479 77.125,6.60938 C77.125,5.98438 77.3255,5.53385 77.7266,5.25781 C78.1276,4.98177 78.6198,4.84375 79.2031,4.84375 C79.7031,4.84375 80.0469,4.86979 80.2344,4.92188 C80.4635,4.98438 80.6875,5.0625 80.9063,5.15625 M86.625,5.15625 L86.625,5.70313 C86.2708,5.50521 86.0521,5.39583 85.9688,5.375 C85.7188,5.32292 85.4063,5.29167 85.0313,5.28125 C84.4688,5.28125 84.026,5.39063 83.7031,5.60938 C83.4531,5.79688 83.3281,6.11458 83.3281,6.5625 C83.3281,6.875 83.4479,7.11458 83.6875,7.28125 C83.9271,7.46875 84.276,7.61458 84.7344,7.71875 L85.0781,7.78125 C85.651,7.90625 86.0833,8.08333 86.375,8.3125 C86.7188,8.58333 86.8958,8.92708 86.9063,9.34375 C86.9063,9.90625 86.7396,10.349 86.4063,10.6719 C86.0521,10.9948 85.474,11.1563 84.6719,11.1563 C84.2344,11.1563 83.901,11.125 83.6719,11.0625 C83.3906,10.9896 83.099,10.8958 82.7969,10.7813 L82.7969,10.1563 C83.2344,10.4063 83.5156,10.5521 83.6406,10.5938 C83.9948,10.6875 84.349,10.7344 84.7031,10.7344 C85.276,10.7344 85.7031,10.6146 85.9844,10.375 C86.2656,10.125 86.4063,9.80729 86.4063,9.42188 C86.4063,9.08854 86.3125,8.84896 86.125,8.70313 C85.8542,8.48438 85.4271,8.30729 84.8438,8.17188 L84.5,8.09375 C83.9896,7.96875 83.6042,7.80208 83.3438,7.59375 C83.0104,7.32292 82.8438,6.99479 82.8438,6.60938 C82.8438,5.98438 83.0443,5.53385 83.4453,5.25781 C83.8464,4.98177 84.3385,4.84375 84.9219,4.84375 C85.4219,4.84375 85.7656,4.86979 85.9531,4.92188 C86.1823,4.98438 86.4063,5.0625 86.625,5.15625 "/>
</g>

<g fill="none" stroke="#000000" stroke-opacity="1" stroke-width="1" stroke-linecap="square" stroke-linejoin="bevel" transform="matrix(1.99941,0,0,1.99941,752.155,21.9935)"
font-family="sans" font-size="11" font-weight="100" font-style="normal" 
>
</g>

<g fill="none" stroke="#000000" stroke-opacity="1" stroke-width="1" stroke-linecap="square" stroke-linejoin="bevel" transform="matrix(1.99941,0,0,1.99941,752.155,21.9935)"
font-family="Ubuntu" font-size="11" font-weight="400" font-style="normal" 
>
</g>

<g fill="none" stroke="#000000" stroke-opacity="1" stroke-width="1" stroke-linecap="square" stroke-linejoin="bevel" transform="matrix(1.99941,0,0,1.99941,0.00319906,71.9788)"
font-family="Ubuntu" font-size="11" font-weight="400" font-style="normal" 
>
</g>

<g fill="none" stroke="#000000" stroke-opacity="1" stroke-width="1" stroke-linecap="square" stroke-linejoin="bevel" transform="matrix(1.99941,0,0,1.99941,0.00319906,71.9788)"
font-family="Ubuntu" font-size="11" font-weight="400" font-style="normal" 
>
</g>

<g fill="none" stroke="#000000" stroke-opacity="1" stroke-width="1" stroke-linecap="square" stroke-linejoin="bevel" transform="matrix(1.99941,0,0,1.99941,0.00319906,71.9788)"
font-family="Ubuntu" font-size="11" font-weight="400" font-style="normal" 
>
</g>

<g fill="none" stroke="#000000" stroke-opacity="1" stroke-width="1" stroke-linecap="square" stroke-linejoin="round" transform="matrix(1.99941,0,0,1.99941,0.00319906,71.9788)"
font-family="Ubuntu" font-size="11" font-weight="400" font-style="normal" 
>
<rect x="0.4984" y="-35.5" width="93.0032" height="35"/>
</g>

<g fill="none" stroke="#000000" stroke-opacity="1" stroke-width="1" stroke-linecap="square" stroke-linejoin="bevel" transform="matrix(1.99941,0,0,1.99941,0.00319906,71.9788)"
font-family="Ubuntu" font-size="11" font-weight="400" font-style="normal" 
>
</g>

<g fill="none" stroke="#000000" stroke-opacity="1" stroke-width="1" stroke-linecap="square" stroke-linejoin="bevel" transform="matrix(1.99941,0,0,1.99941,34.0088,21.9935)"
font-family="Ubuntu" font-size="11" font-weight="400" font-style="normal" 
>
</g>

<g fill="none" stroke="#000000" stroke-opacity="1" stroke-width="1" stroke-linecap="square" stroke-linejoin="bevel" transform="matrix(1.99941,0,0,1.99941,34.0088,21.9935)"
font-family="sans" font-size="11" font-weight="100" font-style="normal" 
>
</g>

<g fill="#000000" fill-opacity="1" stroke="#000000" stroke-opacity="1" stroke-width="1" stroke-linecap="square" stroke-linejoin="round" transform="matrix(1.99941,0,0,1.99941,34.0088,21.9935)"
font-family="sans" font-size="11" font-weight="100" font-style="normal" 
>
<path vector-effect="none" fill-rule="nonzero" d="M2.96875,2.98438 L3.53125,2.98438 L0.734375,12.0156 L0.171875,12.0156 L2.96875,2.98438 M8.84375,3.0625 L6.84375,3.0625 C6.47917,3.0625 6.19792,3.15625 6,3.34375 C5.76042,3.57292 5.64063,3.94271 5.64063,4.45313 L5.64063,4.98438 L7.26563,4.98438 L7.26563,5.40625 L5.64063,5.40625 L5.64063,11 L5.14063,11 L5.14063,5.40625 L4.20313,5.40625 L4.20313,4.98438 L5.14063,4.98438 L5.14063,4.5625 C5.14063,3.90625 5.29688,3.42188 5.60938,3.10938 C5.91146,2.79688 6.32292,2.64063 6.84375,2.64063 L9.34375,2.64063 L9.34375,11 L8.84375,11 L8.84375,3.0625 M11.8594,4.98438 L12.3594,4.98438 L12.3594,11 L11.8594,11 L11.8594,4.98438 M11.8594,2.64063 L12.3594,2.64063 L12.3594,3.3125 L11.8594,3.3125 L11.8594,2.64063 M15.4063,9.64063 L15.4063,13.2813 L14.9219,13.2813 L14.9219,4.98438 L15.4063,4.98438 L15.4063,6.35938 C15.6354,5.83854 15.8802,5.47917 16.1406,5.28125 C16.5469,4.98958 16.9323,4.84375 17.2969,4.84375 C18.0052,4.84375 18.5964,5.13281 19.0703,5.71094 C19.5443,6.28906 19.7813,7.05208 19.7813,8 C19.7813,8.94792 19.5443,9.71094 19.0703,10.2891 C18.5964,10.8672 18.0052,11.1563 17.2969,11.1563 C16.9323,11.1563 16.5469,11.0052 16.1406,10.7031 C15.8802,10.5156 15.6354,10.1615 15.4063,9.64063 M18.6406,10.0938 C19.0573,9.67708 19.2656,8.97917 19.2656,8 C19.2656,7.02083 19.0573,6.32292 18.6406,5.90625 C18.224,5.48958 17.7865,5.28125 17.3281,5.28125 C16.8802,5.28125 16.4479,5.48958 16.0313,5.90625 C15.625,6.32292 15.4219,7.02083 15.4219,8 C15.4219,8.97917 15.625,9.67708 16.0313,10.0938 C16.4479,10.5104 16.8802,10.7188 17.3281,10.7188 C17.7865,10.7188 18.224,10.5104 18.6406,10.0938 M26.25,13.1719 L26.25,13.5938 L20.5313,13.5938 L20.5313,13.1719 L26.25,13.1719 M27.375,4.98438 L27.875,4.98438 L27.875,11 L27.375,11 L27.375,4.98438 M27.375,2.64063 L27.875,2.64063 L27.875,3.3125 L27.375,3.3125 L27.375,2.64063 M34.7656,6.29688 C34.9531,5.80729 35.2448,5.44271 35.6406,5.20313 C36.026,4.96354 36.4792,4.84375 37,4.84375 C37.5208,4.84375 37.9375,5.02604 38.25,5.39063 C38.5729,5.75521 38.7344,6.41667 38.7344,7.375 L38.7344,11 L38.25,11 L38.25,7.40625 C38.25,6.57292 38.1354,6.01042 37.9063,5.71875 C37.6771,5.42708 37.3698,5.28125 36.9844,5.28125 C36.4323,5.28125 35.9479,5.44792 35.5313,5.78125 C35.0625,6.15625 34.8281,6.76042 34.8281,7.59375 L34.8281,11 L34.3438,11 L34.3438,7.40625 C34.3438,6.60417 34.2318,6.04948 34.0078,5.74219 C33.7839,5.4349 33.474,5.28125 33.0781,5.28125 C32.526,5.28125 32.0417,5.45313 31.625,5.79688 C31.1563,6.16146 30.9219,6.76042 30.9219,7.59375 L30.9219,11 L30.4375,11 L30.4375,4.98438 L30.9219,4.98438 L30.9219,6.10938 C31.099,5.71354 31.375,5.40104 31.75,5.17188 C32.1146,4.95313 32.5677,4.84375 33.1094,4.84375 C33.4635,4.84375 33.8021,4.95833 34.125,5.1875 C34.375,5.375 34.5885,5.74479 34.7656,6.29688 M43.5469,7.60938 C42.7448,7.60938 42.1693,7.75 41.8203,8.03125 C41.4714,8.3125 41.2969,8.72396 41.2969,9.26563 C41.2969,9.79688 41.4427,10.1745 41.7344,10.3984 C42.026,10.6224 42.3698,10.7344 42.7656,10.7344 C43.5156,10.7344 44.0573,10.4167 44.3906,9.78125 C44.724,9.13542 44.8906,8.53125 44.8906,7.96875 L44.8906,7.60938 L43.5469,7.60938 M45.3906,7.5625 L45.3906,11 L44.8906,11 L44.8906,9.35938 C44.6198,10.1615 44.2552,10.6719 43.7969,10.8906 C43.4427,11.0677 43.0833,11.1563 42.7188,11.1563 C42.125,11.1563 41.6563,10.9948 41.3125,10.6719 C40.9688,10.349 40.7969,9.8776 40.7969,9.25781 C40.7969,8.63802 41.0208,8.14063 41.4688,7.76563 C41.9167,7.39063 42.6458,7.20313 43.6563,7.20313 L44.8906,7.20313 L44.8906,7.10938 C44.8906,6.57813 44.7344,6.14063 44.4219,5.79688 C44.1302,5.45313 43.6354,5.28125 42.9375,5.28125 C42.5938,5.28125 42.2448,5.34375 41.8906,5.46875 C41.6615,5.55208 41.3594,5.71875 40.9844,5.96875 L40.9844,5.4375 C41.3073,5.23958 41.6094,5.09896 41.8906,5.01563 C42.2865,4.90104 42.6667,4.84375 43.0313,4.84375 C43.75,4.84375 44.3385,5.05729 44.7969,5.48438 C45.1927,5.84896 45.3906,6.54167 45.3906,7.5625 M51.875,7.92188 C51.875,7.08854 51.7057,6.44271 51.3672,5.98438 C51.0286,5.52604 50.5521,5.29688 49.9375,5.29688 C49.3333,5.29688 48.862,5.52604 48.5234,5.98438 C48.1849,6.44271 48.0156,7.08854 48.0156,7.92188 C48.0156,8.75521 48.1849,9.40104 48.5234,9.85938 C48.862,10.3177 49.3333,10.5469 49.9375,10.5469 C50.5521,10.5469 51.0286,10.3177 51.3672,9.85938 C51.7057,9.40104 51.875,8.75521 51.875,7.92188 M52.3594,10.25 C52.3594,11.5 52.1224,12.3177 51.6484,12.7031 C51.1745,13.0885 50.5729,13.2813 49.8438,13.2813 C49.4896,13.2813 49.1615,13.2604 48.8594,13.2188 C48.5469,13.1563 48.2448,13.0729 47.9531,12.9688 L47.9531,12.4063 C48.2448,12.5625 48.5313,12.6797 48.8125,12.7578 C49.0938,12.8359 49.3854,12.875 49.6875,12.875 C50.2813,12.875 50.7943,12.7474 51.2266,12.4922 C51.6589,12.237 51.875,11.5521 51.875,10.4375 L51.875,9.48438 C51.7188,9.90104 51.5156,10.2292 51.2656,10.4688 C50.8698,10.8229 50.4271,11 49.9375,11 C49.1771,11 48.5833,10.7318 48.1563,10.1953 C47.7292,9.65885 47.5156,8.90104 47.5156,7.92188 C47.5156,6.94271 47.7292,6.1849 48.1563,5.64844 C48.5833,5.11198 49.1771,4.84375 49.9375,4.84375 C50.4271,4.84375 50.8438,4.99479 51.1875,5.29688 C51.4583,5.53646 51.6875,5.85938 51.875,6.26563 L51.875,4.98438 L52.3594,4.98438 L52.3594,10.25 M59.1563,7.75 L59.1563,8.0625 L54.5938,8.0625 C54.5938,9.02083 54.7813,9.69792 55.1563,10.0938 C55.5729,10.5208 56.1875,10.7344 57,10.7344 C57.2188,10.7344 57.5052,10.6875 57.8594,10.5938 C58.2135,10.5 58.5677,10.3594 58.9219,10.1719 L58.9219,10.6875 C58.5677,10.8438 58.2057,10.9609 57.8359,11.0391 C57.4661,11.1172 57.1719,11.1563 56.9531,11.1563 C56.026,11.1563 55.3281,10.9063 54.8594,10.4063 C54.349,9.875 54.0938,9.09375 54.0938,8.0625 C54.0938,6.98958 54.3229,6.1875 54.7813,5.65625 C55.2604,5.11458 55.9271,4.84375 56.7813,4.84375 C57.5625,4.84375 58.1563,5.10417 58.5625,5.625 C58.9583,6.16667 59.1563,6.875 59.1563,7.75 M58.6563,7.64063 C58.6563,6.79688 58.4635,6.18229 58.0781,5.79688 C57.7656,5.45313 57.3333,5.28125 56.7813,5.28125 C56.1875,5.28125 55.6875,5.45833 55.2813,5.8125 C54.9063,6.14583 54.6823,6.75521 54.6094,7.64063 L58.6563,7.64063"/>
</g>

<g fill="none" stroke="#000000" stroke-opacity="1" stroke-width="1" stroke-linecap="square" stroke-linejoin="bevel" transform="matrix(1.99941,0,0,1.99941,34.0088,21.9935)"
font-family="sans" font-size="11" font-weight="100" font-style="normal" 
>
</g>

<g fill="none" stroke="#000000" stroke-opacity="1" stroke-width="1" stroke-linecap="square" stroke-linejoin="bevel" transform="matrix(1.99941,0,0,1.99941,34.0088,21.9935)"
font-family="Ubuntu" font-size="11" font-weight="400" font-style="normal" 
>
</g>

<g fill="none" stroke="#000000" stroke-opacity="1" stroke-width="1" stroke-linecap="square" stroke-linejoin="bevel" transform="matrix(1.99941,0,0,1.99941,0.00319906,71.9788)"
font-family="Ubuntu" font-size="11" font-weight="400" font-style="normal" 
>
</g>

<g fill="none" stroke="#000000" stroke-opacity="1" stroke-width="1" stroke-linecap="square" stroke-linejoin="bevel" transform="matrix(1.99941,0,0,1.99941,0.00319906,71.9788)"
font-family="Ubuntu" font-size="11" font-weight="400" font-style="normal" 
>
</g>

<g fill="none" stroke="#000000" stroke-opacity="1" stroke-width="1" stroke-linecap="square" stroke-linejoin="bevel" transform="matrix(1.99941,0,0,1.99941,0.00319906,71.9788)"
font-family="Ubuntu" font-size="11" font-weight="400" font-style="normal" 
>
</g>

<g fill="none" stroke="#000000" stroke-opacity="1" stroke-width="1" stroke-linecap="square" stroke-linejoin="round" transform="matrix(1.99941,0,0,1.99941,0.00319906,71.9788)"
font-family="Ubuntu" font-size="11" font-weight="400" font-style="normal" 
>
<ellipse cx="174.94" cy="-18" rx="66.4456" ry="17.5"/>
</g>

<g fill="none" stroke="#000000" stroke-opacity="1" stroke-width="1" stroke-linecap="square" stroke-linejoin="bevel" transform="matrix(1.99941,0,0,1.99941,0.00319906,71.9788)"
font-family="Ubuntu" font-size="11" font-weight="400" font-style="normal" 
>
</g>

<g fill="none" stroke="#000000" stroke-opacity="1" stroke-width="1" stroke-linecap="square" stroke-linejoin="bevel" transform="matrix(1.99941,0,0,1.99941,281.785,21.9935)"
font-family="Ubuntu" font-size="11" font-weight="400" font-style="normal" 
>
</g>

<g fill="none" stroke="#000000" stroke-opacity="1" stroke-width="1" stroke-linecap="square" stroke-linejoin="bevel" transform="matrix(1.99941,0,0,1.99941,281.785,21.9935)"
font-family="sans" font-size="11" font-weight="100" font-style="normal" 
>
</g>

<g fill="#000000" fill-opacity="1" stroke="#000000" stroke-opacity="1" stroke-width="1" stroke-linecap="square" stroke-linejoin="round" transform="matrix(1.99941,0,0,1.99941,281.785,21.9935)"
font-family="sans" font-size="11" font-weight="100" font-style="normal" 
>
<path vector-effect="none" fill-rule="nonzero" d="M2.96875,2.98438 L3.53125,2.98438 L0.734375,12.0156 L0.171875,12.0156 L2.96875,2.98438 M9.0625,5.28125 L9.0625,5.79688 C8.77083,5.61979 8.52604,5.5 8.32813,5.4375 C7.99479,5.33333 7.67708,5.28125 7.375,5.28125 C6.51042,5.28125 5.89063,5.5026 5.51563,5.94531 C5.14063,6.38802 4.95313,7.07292 4.95313,8 C4.95313,8.9375 5.14063,9.6276 5.51563,10.0703 C5.89063,10.513 6.51042,10.7344 7.375,10.7344 C7.66667,10.7344 7.94792,10.6927 8.21875,10.6094 C8.51042,10.5365 8.79167,10.4219 9.0625,10.2656 L9.0625,10.7656 C8.79167,10.901 8.51042,11 8.21875,11.0625 C7.91667,11.125 7.61979,11.1563 7.32813,11.1563 C6.45313,11.1563 5.75521,10.9167 5.23438,10.4375 C4.71354,9.95833 4.45313,9.14323 4.45313,7.99219 C4.45313,6.84115 4.71354,6.02604 5.23438,5.54688 C5.75521,5.07813 6.45313,4.84375 7.32813,4.84375 C7.61979,4.84375 7.92708,4.88542 8.25,4.96875 C8.57292,5.04167 8.84375,5.14583 9.0625,5.28125 M13.4063,7.60938 C12.6042,7.60938 12.0286,7.75 11.6797,8.03125 C11.3307,8.3125 11.1563,8.72396 11.1563,9.26563 C11.1563,9.79688 11.3021,10.1745 11.5938,10.3984 C11.8854,10.6224 12.2292,10.7344 12.625,10.7344 C13.375,10.7344 13.9167,10.4167 14.25,9.78125 C14.5833,9.13542 14.75,8.53125 14.75,7.96875 L14.75,7.60938 L13.4063,7.60938 M15.25,7.5625 L15.25,11 L14.75,11 L14.75,9.35938 C14.4792,10.1615 14.1146,10.6719 13.6563,10.8906 C13.3021,11.0677 12.9427,11.1563 12.5781,11.1563 C11.9844,11.1563 11.5156,10.9948 11.1719,10.6719 C10.8281,10.349 10.6563,9.8776 10.6563,9.25781 C10.6563,8.63802 10.8802,8.14063 11.3281,7.76563 C11.776,7.39063 12.5052,7.20313 13.5156,7.20313 L14.75,7.20313 L14.75,7.10938 C14.75,6.57813 14.5938,6.14063 14.2813,5.79688 C13.9896,5.45313 13.4948,5.28125 12.7969,5.28125 C12.4531,5.28125 12.1042,5.34375 11.75,5.46875 C11.5208,5.55208 11.2188,5.71875 10.8438,5.96875 L10.8438,5.4375 C11.1667,5.23958 11.4688,5.09896 11.75,5.01563 C12.1458,4.90104 12.526,4.84375 12.8906,4.84375 C13.6094,4.84375 14.1979,5.05729 14.6563,5.48438 C15.0521,5.84896 15.25,6.54167 15.25,7.5625 M22.0625,6.29688 C22.25,5.80729 22.5417,5.44271 22.9375,5.20313 C23.3229,4.96354 23.776,4.84375 24.2969,4.84375 C24.8177,4.84375 25.2344,5.02604 25.5469,5.39063 C25.8698,5.75521 26.0313,6.41667 26.0313,7.375 L26.0313,11 L25.5469,11 L25.5469,7.40625 C25.5469,6.57292 25.4323,6.01042 25.2031,5.71875 C24.974,5.42708 24.6667,5.28125 24.2813,5.28125 C23.7292,5.28125 23.2448,5.44792 22.8281,5.78125 C22.3594,6.15625 22.125,6.76042 22.125,7.59375 L22.125,11 L21.6406,11 L21.6406,7.40625 C21.6406,6.60417 21.5286,6.04948 21.3047,5.74219 C21.0807,5.4349 20.7708,5.28125 20.375,5.28125 C19.8229,5.28125 19.3385,5.45313 18.9219,5.79688 C18.4531,6.16146 18.2188,6.76042 18.2188,7.59375 L18.2188,11 L17.7344,11 L17.7344,4.98438 L18.2188,4.98438 L18.2188,6.10938 C18.3958,5.71354 18.6719,5.40104 19.0469,5.17188 C19.4115,4.95313 19.8646,4.84375 20.4063,4.84375 C20.7604,4.84375 21.099,4.95833 21.4219,5.1875 C21.6719,5.375 21.8854,5.74479 22.0625,6.29688 M28.5156,10.5625 L33.0781,10.5625 L33.0781,11 L27.9531,11 L27.9531,10.4375 L29.9531,8.35938 C30.4427,7.85938 30.8906,7.39583 31.2969,6.96875 C31.6615,6.57292 31.9063,6.26563 32.0313,6.04688 C32.1563,5.82813 32.2188,5.53646 32.2188,5.17188 C32.2188,4.55729 32.0313,4.0625 31.6563,3.6875 C31.3854,3.41667 30.9427,3.28125 30.3281,3.28125 C29.9635,3.28125 29.5521,3.38542 29.0938,3.59375 C28.8854,3.6875 28.5365,3.89063 28.0469,4.20313 L28.0469,3.64063 C28.2552,3.49479 28.5573,3.32813 28.9531,3.14063 C29.4115,2.94271 29.8646,2.83854 30.3125,2.82813 C31,2.82813 31.5781,3.01042 32.0469,3.375 C32.5052,3.72917 32.7344,4.3125 32.7344,5.125 C32.7344,5.45833 32.6719,5.77083 32.5469,6.0625 C32.401,6.40625 32.1771,6.75521 31.875,7.10938 C31.7813,7.21354 31.4948,7.51042 31.0156,8 L28.5156,10.5625 M35.4063,4.98438 L35.9063,4.98438 L35.9063,11 L35.4063,11 L35.4063,4.98438 M35.4063,2.64063 L35.9063,2.64063 L35.9063,3.3125 L35.4063,3.3125 L35.4063,2.64063 M42.7969,6.29688 C42.9844,5.80729 43.276,5.44271 43.6719,5.20313 C44.0573,4.96354 44.5104,4.84375 45.0313,4.84375 C45.5521,4.84375 45.9688,5.02604 46.2813,5.39063 C46.6042,5.75521 46.7656,6.41667 46.7656,7.375 L46.7656,11 L46.2813,11 L46.2813,7.40625 C46.2813,6.57292 46.1667,6.01042 45.9375,5.71875 C45.7083,5.42708 45.401,5.28125 45.0156,5.28125 C44.4635,5.28125 43.9792,5.44792 43.5625,5.78125 C43.0938,6.15625 42.8594,6.76042 42.8594,7.59375 L42.8594,11 L42.375,11 L42.375,7.40625 C42.375,6.60417 42.263,6.04948 42.0391,5.74219 C41.8151,5.4349 41.5052,5.28125 41.1094,5.28125 C40.5573,5.28125 40.0729,5.45313 39.6563,5.79688 C39.1875,6.16146 38.9531,6.76042 38.9531,7.59375 L38.9531,11 L38.4688,11 L38.4688,4.98438 L38.9531,4.98438 L38.9531,6.10938 C39.1302,5.71354 39.4063,5.40104 39.7813,5.17188 C40.1458,4.95313 40.599,4.84375 41.1406,4.84375 C41.4948,4.84375 41.8333,4.95833 42.1563,5.1875 C42.4063,5.375 42.6198,5.74479 42.7969,6.29688 M51.5781,7.60938 C50.776,7.60938 50.2005,7.75 49.8516,8.03125 C49.5026,8.3125 49.3281,8.72396 49.3281,9.26563 C49.3281,9.79688 49.474,10.1745 49.7656,10.3984 C50.0573,10.6224 50.401,10.7344 50.7969,10.7344 C51.5469,10.7344 52.0885,10.4167 52.4219,9.78125 C52.7552,9.13542 52.9219,8.53125 52.9219,7.96875 L52.9219,7.60938 L51.5781,7.60938 M53.4219,7.5625 L53.4219,11 L52.9219,11 L52.9219,9.35938 C52.651,10.1615 52.2865,10.6719 51.8281,10.8906 C51.474,11.0677 51.1146,11.1563 50.75,11.1563 C50.1563,11.1563 49.6875,10.9948 49.3438,10.6719 C49,10.349 48.8281,9.8776 48.8281,9.25781 C48.8281,8.63802 49.0521,8.14063 49.5,7.76563 C49.9479,7.39063 50.6771,7.20313 51.6875,7.20313 L52.9219,7.20313 L52.9219,7.10938 C52.9219,6.57813 52.7656,6.14063 52.4531,5.79688 C52.1615,5.45313 51.6667,5.28125 50.9688,5.28125 C50.625,5.28125 50.276,5.34375 49.9219,5.46875 C49.6927,5.55208 49.3906,5.71875 49.0156,5.96875 L49.0156,5.4375 C49.3385,5.23958 49.6406,5.09896 49.9219,5.01563 C50.3177,4.90104 50.6979,4.84375 51.0625,4.84375 C51.7813,4.84375 52.3698,5.05729 52.8281,5.48438 C53.224,5.84896 53.4219,6.54167 53.4219,7.5625 M59.9063,7.92188 C59.9063,7.08854 59.737,6.44271 59.3984,5.98438 C59.0599,5.52604 58.5833,5.29688 57.9688,5.29688 C57.3646,5.29688 56.8932,5.52604 56.5547,5.98438 C56.2161,6.44271 56.0469,7.08854 56.0469,7.92188 C56.0469,8.75521 56.2161,9.40104 56.5547,9.85938 C56.8932,10.3177 57.3646,10.5469 57.9688,10.5469 C58.5833,10.5469 59.0599,10.3177 59.3984,9.85938 C59.737,9.40104 59.9063,8.75521 59.9063,7.92188 M60.3906,10.25 C60.3906,11.5 60.1536,12.3177 59.6797,12.7031 C59.2057,13.0885 58.6042,13.2813 57.875,13.2813 C57.5208,13.2813 57.1927,13.2604 56.8906,13.2188 C56.5781,13.1563 56.276,13.0729 55.9844,12.9688 L55.9844,12.4063 C56.276,12.5625 56.5625,12.6797 56.8438,12.7578 C57.125,12.8359 57.4167,12.875 57.7188,12.875 C58.3125,12.875 58.8255,12.7474 59.2578,12.4922 C59.6901,12.237 59.9063,11.5521 59.9063,10.4375 L59.9063,9.48438 C59.75,9.90104 59.5469,10.2292 59.2969,10.4688 C58.901,10.8229 58.4583,11 57.9688,11 C57.2083,11 56.6146,10.7318 56.1875,10.1953 C55.7604,9.65885 55.5469,8.90104 55.5469,7.92188 C55.5469,6.94271 55.7604,6.1849 56.1875,5.64844 C56.6146,5.11198 57.2083,4.84375 57.9688,4.84375 C58.4583,4.84375 58.875,4.99479 59.2188,5.29688 C59.4896,5.53646 59.7188,5.85938 59.9063,6.26563 L59.9063,4.98438 L60.3906,4.98438 L60.3906,10.25 M67.1875,7.75 L67.1875,8.0625 L62.625,8.0625 C62.625,9.02083 62.8125,9.69792 63.1875,10.0938 C63.6042,10.5208 64.2188,10.7344 65.0313,10.7344 C65.25,10.7344 65.5365,10.6875 65.8906,10.5938 C66.2448,10.5 66.599,10.3594 66.9531,10.1719 L66.9531,10.6875 C66.599,10.8438 66.237,10.9609 65.8672,11.0391 C65.4974,11.1172 65.2031,11.1563 64.9844,11.1563 C64.0573,11.1563 63.3594,10.9063 62.8906,10.4063 C62.3802,9.875 62.125,9.09375 62.125,8.0625 C62.125,6.98958 62.3542,6.1875 62.8125,5.65625 C63.2917,5.11458 63.9583,4.84375 64.8125,4.84375 C65.5938,4.84375 66.1875,5.10417 66.5938,5.625 C66.9896,6.16667 67.1875,6.875 67.1875,7.75 M66.6875,7.64063 C66.6875,6.79688 66.4948,6.18229 66.1094,5.79688 C65.7969,5.45313 65.3646,5.28125 64.8125,5.28125 C64.2188,5.28125 63.7188,5.45833 63.3125,5.8125 C62.9375,6.14583 62.7135,6.75521 62.6406,7.64063 L66.6875,7.64063"/>
</g>

<g fill="none" stroke="#000000" stroke-opacity="1" stroke-width="1" stroke-linecap="square" stroke-linejoin="bevel" transform="matrix(1.99941,0,0,1.99941,281.785,21.9935)"
font-family="sans" font-size="11" font-weight="100" font-style="normal" 
>
</g>

<g fill="none" stroke="#000000" stroke-opacity="1" stroke-width="1" stroke-linecap="square" stroke-linejoin="bevel" transform="matrix(1.99941,0,0,1.99941,281.785,21.9935)"
font-family="Ubuntu" font-size="11" font-weight="400" font-style="normal" 
>
</g>

<g fill="none" stroke="#000000" stroke-opacity="1" stroke-width="1" stroke-linecap="square" stroke-linejoin="bevel" transform="matrix(1.99941,0,0,1.99941,0.00319906,71.9788)"
font-family="Ubuntu" font-size="11" font-weight="400" font-style="normal" 
>
</g>

<g fill="none" stroke="#000000" stroke-opacity="1" stroke-width="1" stroke-linecap="square" stroke-linejoin="bevel" transform="matrix(1.99941,0,0,1.99941,0.00319906,71.9788)"
font-family="Ubuntu" font-size="11" font-weight="400" font-style="normal" 
>
</g>

<g fill="none" stroke="#000000" stroke-opacity="1" stroke-width="1" stroke-linecap="square" stroke-linejoin="bevel" transform="matrix(1.99941,0,0,1.99941,0.00319906,71.9788)"
font-family="Ubuntu" font-size="11" font-weight="400" font-style="normal" 
>
</g>

<g fill="none" stroke="#000000" stroke-opacity="1" stroke-width="1" stroke-linecap="square" stroke-linejoin="round" transform="matrix(1.99941,0,0,1.99941,0.00319906,71.9788)"
font-family="Ubuntu" font-size="11" font-weight="400" font-style="normal" 
>
<rect x="519.67" y="-35.5" width="64.0002" height="35"/>
</g>

<g fill="none" stroke="#000000" stroke-opacity="1" stroke-width="1" stroke-linecap="square" stroke-linejoin="bevel" transform="matrix(1.99941,0,0,1.99941,0.00319906,71.9788)"
font-family="Ubuntu" font-size="11" font-weight="400" font-style="normal" 
>
</g>

<g fill="none" stroke="#000000" stroke-opacity="1" stroke-width="1" stroke-linecap="square" stroke-linejoin="bevel" transform="matrix(1.99941,0,0,1.99941,1066.92,21.9935)"
font-family="Ubuntu" font-size="11" font-weight="400" font-style="normal" 
>
</g>

<g fill="none" stroke="#000000" stroke-opacity="1" stroke-width="1" stroke-linecap="square" stroke-linejoin="bevel" transform="matrix(1.99941,0,0,1.99941,1066.92,21.9935)"
font-family="sans" font-size="11" font-weight="100" font-style="normal" 
>
</g>

<g fill="#000000" fill-opacity="1" stroke="#000000" stroke-opacity="1" stroke-width="1" stroke-linecap="square" stroke-linejoin="round" transform="matrix(1.99941,0,0,1.99941,1066.92,21.9935)"
font-family="sans" font-size="11" font-weight="100" font-style="normal" 
>
<path vector-effect="none" fill-rule="nonzero" d="M2.96875,2.98438 L3.53125,2.98438 L0.734375,12.0156 L0.171875,12.0156 L2.96875,2.98438 M8.67188,10.0938 C9.08854,9.67708 9.29688,8.97917 9.29688,8 C9.29688,7.02083 9.08854,6.32292 8.67188,5.90625 C8.25521,5.48958 7.81771,5.28125 7.35938,5.28125 C6.91146,5.28125 6.47917,5.48958 6.0625,5.90625 C5.65625,6.32292 5.45313,7.02083 5.45313,8 C5.45313,8.97917 5.65625,9.67708 6.0625,10.0938 C6.47917,10.5104 6.91146,10.7188 7.35938,10.7188 C7.81771,10.7188 8.25521,10.5104 8.67188,10.0938 M5.4375,6.35938 C5.66667,5.83854 5.91146,5.47917 6.17188,5.28125 C6.57813,4.98958 6.96354,4.84375 7.32813,4.84375 C8.03646,4.84375 8.6276,5.13281 9.10156,5.71094 C9.57552,6.28906 9.8125,7.05208 9.8125,8 C9.8125,8.94792 9.57552,9.71094 9.10156,10.2891 C8.6276,10.8672 8.03646,11.1563 7.32813,11.1563 C6.96354,11.1563 6.57813,11.0052 6.17188,10.7031 C5.91146,10.5156 5.66667,10.1615 5.4375,9.64063 L5.4375,11 L4.95313,11 L4.95313,2.64063 L5.4375,2.64063 L5.4375,6.35938 M15.1875,5.40625 C15.1042,5.36458 14.9948,5.33333 14.8594,5.3125 C14.7344,5.29167 14.5833,5.28125 14.4063,5.28125 C13.7917,5.28125 13.2865,5.50521 12.8906,5.95313 C12.5677,6.31771 12.4063,6.94271 12.4063,7.82813 L12.4063,11 L11.9219,11 L11.9219,4.98438 L12.4063,4.98438 L12.4063,6.10938 C12.5729,5.78646 12.8021,5.51563 13.0938,5.29688 C13.4896,4.99479 13.9583,4.84375 14.5,4.84375 C14.6458,4.84375 14.7708,4.84896 14.875,4.85938 C14.9792,4.85938 15.0833,4.86979 15.1875,4.89063 L15.1875,5.40625 M16.4219,4.98438 L16.9219,4.98438 L16.9219,11 L16.4219,11 L16.4219,4.98438 M16.4219,2.64063 L16.9219,2.64063 L16.9219,3.3125 L16.4219,3.3125 L16.4219,2.64063 M23.4844,7.92188 C23.4844,7.08854 23.3151,6.44271 22.9766,5.98438 C22.638,5.52604 22.1615,5.29688 21.5469,5.29688 C20.9427,5.29688 20.4714,5.52604 20.1328,5.98438 C19.7943,6.44271 19.625,7.08854 19.625,7.92188 C19.625,8.75521 19.7943,9.40104 20.1328,9.85938 C20.4714,10.3177 20.9427,10.5469 21.5469,10.5469 C22.1615,10.5469 22.638,10.3177 22.9766,9.85938 C23.3151,9.40104 23.4844,8.75521 23.4844,7.92188 M23.9688,10.25 C23.9688,11.5 23.7318,12.3177 23.2578,12.7031 C22.7839,13.0885 22.1823,13.2813 21.4531,13.2813 C21.099,13.2813 20.7708,13.2604 20.4688,13.2188 C20.1563,13.1563 19.8542,13.0729 19.5625,12.9688 L19.5625,12.4063 C19.8542,12.5625 20.1406,12.6797 20.4219,12.7578 C20.7031,12.8359 20.9948,12.875 21.2969,12.875 C21.8906,12.875 22.4036,12.7474 22.8359,12.4922 C23.2682,12.237 23.4844,11.5521 23.4844,10.4375 L23.4844,9.48438 C23.3281,9.90104 23.125,10.2292 22.875,10.4688 C22.4792,10.8229 22.0365,11 21.5469,11 C20.7865,11 20.1927,10.7318 19.7656,10.1953 C19.3385,9.65885 19.125,8.90104 19.125,7.92188 C19.125,6.94271 19.3385,6.1849 19.7656,5.64844 C20.1927,5.11198 20.7865,4.84375 21.5469,4.84375 C22.0365,4.84375 22.4531,4.99479 22.7969,5.29688 C23.0677,5.53646 23.2969,5.85938 23.4844,6.26563 L23.4844,4.98438 L23.9688,4.98438 L23.9688,10.25 M30.625,7.375 L30.625,11 L30.125,11 L30.125,7.40625 C30.125,6.625 29.9948,6.07552 29.7344,5.75781 C29.474,5.4401 29.0781,5.28125 28.5469,5.28125 C27.9323,5.28125 27.4479,5.45833 27.0938,5.8125 C26.7396,6.16667 26.5625,6.76042 26.5625,7.59375 L26.5625,11 L26.0781,11 L26.0781,2.64063 L26.5625,2.64063 L26.5625,6.09375 C26.6771,5.79167 26.8854,5.52083 27.1875,5.28125 C27.5313,4.98958 28.0208,4.84375 28.6563,4.84375 C29.2604,4.84375 29.7396,5.05729 30.0938,5.48438 C30.4479,5.91146 30.625,6.54167 30.625,7.375 M33.5625,3.28125 L33.5625,4.98438 L35.5938,4.98438 L35.5938,5.40625 L33.5625,5.40625 L33.5625,9.01563 C33.5625,9.47396 33.6198,9.79688 33.7344,9.98438 C33.9844,10.3802 34.3438,10.5781 34.8125,10.5781 L35.5938,10.5781 L35.5938,11 L34.8281,11 C34.3385,11 33.9219,10.8568 33.5781,10.5703 C33.2344,10.2839 33.0625,9.76563 33.0625,9.01563 L33.0625,5.40625 L32.3438,5.40625 L32.3438,4.98438 L33.0625,4.98438 L33.0625,3.28125 L33.5625,3.28125"/>
</g>

<g fill="none" stroke="#000000" stroke-opacity="1" stroke-width="1" stroke-linecap="square" stroke-linejoin="bevel" transform="matrix(1.99941,0,0,1.99941,1066.92,21.9935)"
font-family="sans" font-size="11" font-weight="100" font-style="normal" 
>
</g>

<g fill="none" stroke="#000000" stroke-opacity="1" stroke-width="1" stroke-linecap="square" stroke-linejoin="bevel" transform="matrix(1.99941,0,0,1.99941,1066.92,21.9935)"
font-family="Ubuntu" font-size="11" font-weight="400" font-style="normal" 
>
</g>

<g fill="none" stroke="#000000" stroke-opacity="1" stroke-width="1" stroke-linecap="square" stroke-linejoin="bevel" transform="matrix(1.99941,0,0,1.99941,0.00319906,71.9788)"
font-family="Ubuntu" font-size="11" font-weight="400" font-style="normal" 
>
</g>

<g fill="none" stroke="#000000" stroke-opacity="1" stroke-width="1" stroke-linecap="square" stroke-linejoin="bevel" transform="matrix(1.99941,0,0,1.99941,0.00319906,71.9788)"
font-family="Ubuntu" font-size="11" font-weight="400" font-style="normal" 
>
</g>

<g fill="none" stroke="#000000" stroke-opacity="1" stroke-width="1" stroke-linecap="square" stroke-linejoin="bevel" transform="matrix(1.99941,0,0,1.99941,0.00319906,71.9788)"
font-family="Ubuntu" font-size="11" font-weight="400" font-style="normal" 
>
</g>

<g fill="none" stroke="#000000" stroke-opacity="1" stroke-width="1" stroke-linecap="square" stroke-linejoin="round" transform="matrix(1.99941,0,0,1.99941,0.00319906,71.9788)"
font-family="Ubuntu" font-size="11" font-weight="400" font-style="normal" 
>
<path vector-effect="none" fill-rule="evenodd" d="M321.1,-18 C322.33,-18 323.57,-18 324.83,-18 "/>
</g>

<g fill="none" stroke="#000000" stroke-opacity="1" stroke-width="1" stroke-linecap="square" stroke-linejoin="bevel" transform="matrix(1.99941,0,0,1.99941,0.00319906,71.9788)"
font-family="Ubuntu" font-size="11" font-weight="400" font-style="normal" 
>
</g>

<g fill="none" stroke="#000000" stroke-opacity="1" stroke-width="1" stroke-linecap="square" stroke-linejoin="bevel" transform="matrix(1.99941,0,0,1.99941,0.00319906,71.9788)"
font-family="Ubuntu" font-size="11" font-weight="400" font-style="normal" 
>
</g>

<g fill="#000000" fill-opacity="1" stroke="#000000" stroke-opacity="1" stroke-width="1" stroke-linecap="square" stroke-linejoin="round" transform="matrix(1.99941,0,0,1.99941,0.00319906,71.9788)"
font-family="Ubuntu" font-size="11" font-weight="400" font-style="normal" 
>
<path vector-effect="none" fill-rule="evenodd" d="M324.83,-18 L324.83,-14.4965 L334.84,-18 L324.83,-21.5035 L324.83,-18"/>
</g>

<g fill="none" stroke="#000000" stroke-opacity="1" stroke-width="1" stroke-linecap="square" stroke-linejoin="bevel" transform="matrix(1.99941,0,0,1.99941,0.00319906,71.9788)"
font-family="Ubuntu" font-size="11" font-weight="400" font-style="normal" 
>
</g>

<g fill="none" stroke="#000000" stroke-opacity="1" stroke-width="1" stroke-linecap="square" stroke-linejoin="bevel" transform="matrix(1.99941,0,0,1.99941,0.00319906,71.9788)"
font-family="Ubuntu" font-size="11" font-weight="400" font-style="normal" 
>
</g>

<g fill="none" stroke="#000000" stroke-opacity="1" stroke-width="1" stroke-linecap="square" stroke-linejoin="bevel" transform="matrix(1.99941,0,0,1.99941,0.00319906,71.9788)"
font-family="Ubuntu" font-size="11" font-weight="400" font-style="normal" 
>
</g>

<g fill="none" stroke="#000000" stroke-opacity="1" stroke-width="1" stroke-linecap="square" stroke-linejoin="bevel" transform="matrix(1.99941,0,0,1.99941,0.00319906,71.9788)"
font-family="Ubuntu" font-size="11" font-weight="400" font-style="normal" 
>
</g>

<g fill="none" stroke="#000000" stroke-opacity="1" stroke-width="1" stroke-linecap="square" stroke-linejoin="round" transform="matrix(1.99941,0,0,1.99941,0.00319906,71.9788)"
font-family="Ubuntu" font-size="11" font-weight="400" font-style="normal" 
>
<path vector-effect="none" fill-rule="evenodd" d="M94.182,-18 C95.305,-18 96.436,-18 97.573,-18 "/>
</g>

<g fill="none" stroke="#000000" stroke-opacity="1" stroke-width="1" stroke-linecap="square" stroke-linejoin="bevel" transform="matrix(1.99941,0,0,1.99941,0.00319906,71.9788)"
font-family="Ubuntu" font-size="11" font-weight="400" font-style="normal" 
>
</g>

<g fill="none" stroke="#000000" stroke-opacity="1" stroke-width="1" stroke-linecap="square" stroke-linejoin="bevel" transform="matrix(1.99941,0,0,1.99941,0.00319906,71.9788)"
font-family="Ubuntu" font-size="11" font-weight="400" font-style="normal" 
>
</g>

<g fill="#000000" fill-opacity="1" stroke="#000000" stroke-opacity="1" stroke-width="1" stroke-linecap="square" stroke-linejoin="round" transform="matrix(1.99941,0,0,1.99941,0.00319906,71.9788)"
font-family="Ubuntu" font-size="11" font-weight="400" font-style="normal" 
>
<path vector-effect="none" fill-rule="evenodd" d="M97.573,-18 L97.573,-14.375 L107.93,-18 L97.573,-21.625 L97.573,-18"/>
</g>

<g fill="none" stroke="#000000" stroke-opacity="1" stroke-width="1" stroke-linecap="square" stroke-linejoin="bevel" transform="matrix(1.99941,0,0,1.99941,0.00319906,71.9788)"
font-family="Ubuntu" font-size="11" font-weight="400" font-style="normal" 
>
</g>

<g fill="none" stroke="#000000" stroke-opacity="1" stroke-width="1" stroke-linecap="square" stroke-linejoin="bevel" transform="matrix(1.99941,0,0,1.99941,0.00319906,71.9788)"
font-family="Ubuntu" font-size="11" font-weight="400" font-style="normal" 
>
</g>

<g fill="none" stroke="#000000" stroke-opacity="1" stroke-width="1" stroke-linecap="square" stroke-linejoin="bevel" transform="matrix(1.99941,0,0,1.99941,0.00319906,71.9788)"
font-family="Ubuntu" font-size="11" font-weight="400" font-style="normal" 
>
</g>

<g fill="none" stroke="#000000" stroke-opacity="1" stroke-width="1" stroke-linecap="square" stroke-linejoin="bevel" transform="matrix(1.99941,0,0,1.99941,0.00319906,71.9788)"
font-family="Ubuntu" font-size="11" font-weight="400" font-style="normal" 
>
</g>

<g fill="none" stroke="#000000" stroke-opacity="1" stroke-width="1" stroke-linecap="square" stroke-linejoin="round" transform="matrix(1.99941,0,0,1.99941,0.00319906,71.9788)"
font-family="Ubuntu" font-size="11" font-weight="400" font-style="normal" 
>
<path vector-effect="none" fill-rule="evenodd" d="M505.33,-18 C506.52,-18 507.69,-18 508.85,-18 "/>
</g>

<g fill="none" stroke="#000000" stroke-opacity="1" stroke-width="1" stroke-linecap="square" stroke-linejoin="bevel" transform="matrix(1.99941,0,0,1.99941,0.00319906,71.9788)"
font-family="Ubuntu" font-size="11" font-weight="400" font-style="normal" 
>
</g>

<g fill="none" stroke="#000000" stroke-opacity="1" stroke-width="1" stroke-linecap="square" stroke-linejoin="bevel" transform="matrix(1.99941,0,0,1.99941,0.00319906,71.9788)"
font-family="Ubuntu" font-size="11" font-weight="400" font-style="normal" 
>
</g>

<g fill="#000000" fill-opacity="1" stroke="#000000" stroke-opacity="1" stroke-width="1" stroke-linecap="square" stroke-linejoin="round" transform="matrix(1.99941,0,0,1.99941,0.00319906,71.9788)"
font-family="Ubuntu" font-size="11" font-weight="400" font-style="normal" 
>
<path vector-effect="none" fill-rule="evenodd" d="M508.85,-18 L508.85,-14.458 L518.97,-18 L508.85,-21.542 L508.85,-18"/>
</g>

<g fill="none" stroke="#000000" stroke-opacity="1" stroke-width="1" stroke-linecap="square" stroke-linejoin="bevel" transform="matrix(1.99941,0,0,1.99941,0.00319906,71.9788)"
font-family="Ubuntu" font-size="11" font-weight="400" font-style="normal" 
>
</g>

<g fill="none" stroke="#000000" stroke-opacity="1" stroke-width="1" stroke-linecap="square" stroke-linejoin="bevel" transform="matrix(1.99941,0,0,1.99941,0.00319906,71.9788)"
font-family="Ubuntu" font-size="11" font-weight="400" font-style="normal" 
>
</g>

<g fill="none" stroke="#000000" stroke-opacity="1" stroke-width="1" stroke-linecap="square" stroke-linejoin="bevel" transform="matrix(1.99941,0,0,1.99941,0.00319906,71.9788)"
font-family="Ubuntu" font-size="11" font-weight="400" font-style="normal" 
>
</g>

<g fill="none" stroke="#000000" stroke-opacity="1" stroke-width="1" stroke-linecap="square" stroke-linejoin="bevel" transform="matrix(1.99941,0,0,1.99941,0.00319906,71.9788)"
font-family="Ubuntu" font-size="11" font-weight="400" font-style="normal" 
>
</g>

<g fill="none" stroke="#000000" stroke-opacity="1" stroke-width="1" stroke-linecap="square" stroke-linejoin="round" transform="matrix(1.99941,0,0,1.99941,0.00319906,71.9788)"
font-family="Ubuntu" font-size="11" font-weight="400" font-style="normal" 
>
<path vector-effect="none" fill-rule="evenodd" d="M242.06,-18 C243.23,-18 244.4,-18 245.55,-18 "/>
</g>

<g fill="none" stroke="#000000" stroke-opacity="1" stroke-width="1" stroke-linecap="square" stroke-linejoin="bevel" transform="matrix(1.99941,0,0,1.99941,0.00319906,71.9788)"
font-family="Ubuntu" font-size="11" font-weight="400" font-style="normal" 
>
</g>

<g fill="none" stroke="#000000" stroke-opacity="1" stroke-width="1" stroke-linecap="square" stroke-linejoin="bevel" transform="matrix(1.99941,0,0,1.99941,0.00319906,71.9788)"
font-family="Ubuntu" font-size="11" font-weight="400" font-style="normal" 
>
</g>

<g fill="#000000" fill-opacity="1" stroke="#000000" stroke-opacity="1" stroke-width="1" stroke-linecap="square" stroke-linejoin="round" transform="matrix(1.99941,0,0,1.99941,0.00319906,71.9788)"
font-family="Ubuntu" font-size="11" font-weight="400" font-style="normal" 
>
<path vector-effect="none" fill-rule="evenodd" d="M245.55,-18 L245.55,-14.4545 L255.68,-18 L245.55,-21.5455 L245.55,-18"/>
</g>

<g fill="none" stroke="#000000" stroke-opacity="1" stroke-width="1" stroke-linecap="square" stroke-linejoin="bevel" transform="matrix(1.99941,0,0,1.99941,0.00319906,71.9788)"
font-family="Ubuntu" font-size="11" font-weight="400" font-style="normal" 
>
</g>

<g fill="none" stroke="#000000" stroke-opacity="1" stroke-width="1" stroke-linecap="square" stroke-linejoin="bevel" transform="matrix(1,0,0,1,0,0)"
font-family="Ubuntu" font-size="11" font-weight="400" font-style="normal" 
>
</g>
</g>
</svg>
